  0
SECTION
  2
HEADER
  9
$ACADVER
  1
AC1014
  9
$HANDSEED
  5
FFFF
  9
$MEASUREMENT
 70
     1
  0
ENDSEC
  0
SECTION
  2
TABLES
  0
TABLE
  2
VPORT
  5
8
330
0
100
AcDbSymbolTable
 70
     4
  0
VPORT
  5
2E
330
8
100
AcDbSymbolTableRecord
100
AcDbViewportTableRecord
  2
*ACTIVE
 70
     0
 10
0.0
 20
0.0
 11
1.0
 21
1.0
 12
210.0
 22
148.5
 13
0.0
 23
0.0
 14
10.0
 24
10.0
 15
10.0
 25
10.0
 16
0.0
 26
0.0
 36
1.0
 17
0.0
 27
0.0
 37
0.0
 40
341.0
 41
1.24
 42
50.0
 43
0.0
 44
0.0
 50
0.0
 51
0.0
 71
     0
 72
   100
 73
     1
 74
     3
 75
     0
 76
     0
 77
     0
 78
     0
  0
ENDTAB
  0
TABLE
  2
LTYPE
  5
5
330
0
100
AcDbSymbolTable
 70
     1
  0
LTYPE
  5
14
330
5
100
AcDbSymbolTableRecord
100
AcDbLinetypeTableRecord
  2
BYBLOCK
 70
     0
  3

 72
    65
 73
     0
 40
0.0
  0
LTYPE
  5
15
330
5
100
AcDbSymbolTableRecord
100
AcDbLinetypeTableRecord
  2
BYLAYER
 70
     0
  3

 72
    65
 73
     0
 40
0.0
  0
LTYPE
  5
16
330
5
100
AcDbSymbolTableRecord
100
AcDbLinetypeTableRecord
  2
CONTINUOUS
 70
     0
  3
Solid line
 72
    65
 73
     0
 40
0.0
  0
ENDTAB
  0
TABLE
  2
LAYER
  5
2
100
AcDbSymbolTable
 70
5
  0
LAYER
  5
50
100
AcDbSymbolTableRecord
100
AcDbLayerTableRecord
  2
0
 70
0
  6
CONTINUOUS
  0
LAYER
  5
51
100
AcDbSymbolTableRecord
100
AcDbLayerTableRecord
  2
mfos_vco_VI_panel_2
 70
0
  6
CONTINUOUS
  0
LAYER
  5
52
100
AcDbSymbolTableRecord
100
AcDbLayerTableRecord
  2
holes
 70
0
  6
CONTINUOUS
  0
LAYER
  5
53
100
AcDbSymbolTableRecord
100
AcDbLayerTableRecord
  2
text
 70
0
  6
CONTINUOUS
  0
LAYER
  5
54
100
AcDbSymbolTableRecord
100
AcDbLayerTableRecord
  2
overlay#1
 70
0
  6
CONTINUOUS
  0
ENDTAB
  0
TABLE
  2
STYLE
  5
3
330
0
100
AcDbSymbolTable
 70
     1
  0
STYLE
  5
11
330
3
100
AcDbSymbolTableRecord
100
AcDbTextStyleTableRecord
  2
STANDARD
 70
     0
 40
0.0
 41
1.0
 50
0.0
 71
     0
 42
2.5
  3
txt
  4

  0
ENDTAB
  0
TABLE
  2
VIEW
  5
6
330
0
100
AcDbSymbolTable
 70
     0
  0
ENDTAB
  0
TABLE
  2
UCS
  5
7
330
0
100
AcDbSymbolTable
 70
     0
  0
ENDTAB
  0
TABLE
  2
APPID
  5
9
330
0
100
AcDbSymbolTable
 70
     2
  0
APPID
  5
12
330
9
100
AcDbSymbolTableRecord
100
AcDbRegAppTableRecord
  2
ACAD
 70
     0
  0
ENDTAB
  0
TABLE
  2
DIMSTYLE
  5
A
330
0
100
AcDbSymbolTable
 70
     1
  0
DIMSTYLE
105
27
330
A
100
AcDbSymbolTableRecord
100
AcDbDimStyleTableRecord
  2
ISO-25
 70
     0
  3

  4

  5

  6

  7

 40
1.0
 41
2.5
 42
0.625
 43
3.75
 44
1.25
 45
0.0
 46
0.0
 47
0.0
 48
0.0
140
2.5
141
2.5
142
0.0
143
0.03937007874016
144
1.0
145
0.0
146
1.0
147
0.625
 71
     0
 72
     0
 73
     0
 74
     0
 75
     0
 76
     0
 77
     1
 78
     8
170
     0
171
     3
172
     1
173
     0
174
     0
175
     0
176
     0
177
     0
178
     0
270
     2
271
     2
272
     2
273
     2
274
     3
340
11
275
     0
280
     0
281
     0
282
     0
283
     0
284
     8
285
     0
286
     0
287
     3
288
     0
  0
ENDTAB
  0
TABLE
  2
BLOCK_RECORD
  5
1
330
0
100
AcDbSymbolTable
 70
     1
  0
BLOCK_RECORD
  5
1F
330
1
100
AcDbSymbolTableRecord
100
AcDbBlockTableRecord
  2
*MODEL_SPACE
  0
BLOCK_RECORD
  5
1B
330
1
100
AcDbSymbolTableRecord
100
AcDbBlockTableRecord
  2
*PAPER_SPACE
  0
ENDTAB
  0
ENDSEC
  0
SECTION
  2
BLOCKS
  0
BLOCK
  5
20
330
1F
100
AcDbEntity
  8
0
100
AcDbBlockBegin
  2
*MODEL_SPACE
 70
     0
 10
0.0
 20
0.0
 30
0.0
  3
*MODEL_SPACE
  1

  0
ENDBLK
  5
21
330
1F
100
AcDbEntity
  8
0
100
AcDbBlockEnd
  0
BLOCK
  5
1C
330
1B
100
AcDbEntity
 67
     1
  8
0
100
AcDbBlockBegin
  2
*PAPER_SPACE
  1

  0
ENDBLK
  5
1D
330
1B
100
AcDbEntity
 67
     1
  8
0
100
AcDbBlockEnd
  0
ENDSEC
  0
SECTION
  2
ENTITIES
  0
LWPOLYLINE
  5
100
100
AcDbEntity
  8
text
 62
5
100
AcDbPolyline
 90
5
 70
1
 10
1.835613
 20
273.482625
 30
0.0
 10
205.044571
 20
273.482625
 30
0.0
 10
205.044571
 20
6.289908
 30
0.0
 10
1.835613
 20
6.289908
 30
0.0
 10
1.835613
 20
273.482625
 30
0.0
  0
LWPOLYLINE
  5
101
100
AcDbEntity
  8
text
 62
1
100
AcDbPolyline
 90
6
 70
0
 10
19.678352
 20
140.878546
 30
0.0
 10
3.820279
 20
140.878546
 30
0.0
 10
3.820279
 20
269.281452
 30
0.0
 10
47.733096
 20
269.281452
 30
0.0
 10
47.733096
 20
140.878546
 30
0.0
 10
3.820279
 20
140.878546
 30
0.0
  0
SPLINE
  5
102
100
AcDbEntity
  8
text
 62
1
100
AcDbSpline
 70
0
 71
3
 72
19
 73
15
 74
13
 40
0.000000
 40
0.000000
 40
0.000000
 40
0.000000
 40
0.126184
 40
0.254237
 40
0.391691
 40
0.529031
 40
0.656649
 40
0.782733
 40
0.908904
 40
1.036636
 40
1.173998
 40
1.311474
 40
1.439641
 40
1.565913
 40
1.565913
 40
1.565913
 40
1.565913
 10
43.291547
 20
266.116885
 30
0.0
 10
43.283946
 20
266.074342
 30
0.0
 10
43.268633
 20
265.988626
 30
0.0
 10
43.161620
 20
265.898665
 30
0.0
 10
43.027308
 20
265.866339
 30
0.0
 10
42.891349
 20
265.898539
 30
0.0
 10
42.789499
 20
265.988799
 30
0.0
 10
42.750484
 20
266.116919
 30
0.0
 10
42.789518
 20
266.245052
 30
0.0
 10
42.891295
 20
266.335484
 30
0.0
 10
43.027308
 20
266.367831
 30
0.0
 10
43.161673
 20
266.335358
 30
0.0
 10
43.268619
 20
266.245228
 30
0.0
 10
43.283943
 20
266.159453
 30
0.0
 10
43.291547
 20
266.116885
 30
0.0
 11
43.291547
 21
266.116885
 31
0.0
 11
43.255407
 21
265.995987
 31
0.0
 11
43.160471
 21
265.910053
 31
0.0
 11
43.026964
 21
265.877349
 31
0.0
 11
42.893575
 21
265.910053
 31
0.0
 11
42.799226
 21
265.995987
 31
0.0
 11
42.763439
 21
266.116885
 31
0.0
 11
42.799226
 21
266.237875
 31
0.0
 11
42.893575
 21
266.323979
 31
0.0
 11
43.026964
 21
266.356774
 31
0.0
 11
43.160471
 21
266.323979
 31
0.0
 11
43.255407
 21
266.237875
 31
0.0
 11
43.291547
 21
266.116885
 31
0.0
  0
LWPOLYLINE
  5
103
100
AcDbEntity
  8
text
 62
1
100
AcDbPolyline
 90
2
 70
1
 10
43.291547
 20
266.116885
 30
0.0
 10
43.291547
 20
266.116885
 30
0.0
  0
SPLINE
  5
104
100
AcDbEntity
  8
text
 62
1
100
AcDbSpline
 70
0
 71
3
 72
19
 73
15
 74
13
 40
0.000000
 40
0.000000
 40
0.000000
 40
0.000000
 40
0.089692
 40
0.188036
 40
0.299667
 40
0.410927
 40
0.509590
 40
0.599390
 40
0.688956
 40
0.787563
 40
0.898821
 40
1.010449
 40
1.108736
 40
1.198194
 40
1.198194
 40
1.198194
 40
1.198194
 10
11.129363
 20
143.907825
 30
0.0
 10
11.122692
 20
143.877692
 30
0.0
 10
11.108707
 20
143.814522
 30
0.0
 10
11.020039
 20
143.753707
 30
0.0
 10
10.913528
 20
143.731987
 30
0.0
 10
10.805214
 20
143.753884
 30
0.0
 10
10.721031
 20
143.814423
 30
0.0
 10
10.684813
 20
143.907753
 30
0.0
 10
10.721079
 20
144.001022
 30
0.0
 10
10.805246
 20
144.061412
 30
0.0
 10
10.913528
 20
144.083311
 30
0.0
 10
11.020009
 20
144.061588
 30
0.0
 10
11.108649
 20
144.000927
 30
0.0
 10
11.122678
 20
143.937870
 30
0.0
 10
11.129363
 20
143.907825
 30
0.0
 11
11.129363
 21
143.907825
 31
0.0
 11
11.099873
 21
143.823119
 31
0.0
 11
11.022327
 21
143.762637
 31
0.0
 11
10.913110
 21
143.739550
 31
0.0
 11
10.804272
 21
143.762637
 31
0.0
 11
10.726321
 21
143.823119
 31
0.0
 11
10.696504
 21
143.907825
 31
0.0
 11
10.726321
 21
143.992282
 31
0.0
 11
10.804272
 21
144.052672
 31
0.0
 11
10.913110
 21
144.075747
 31
0.0
 11
11.022327
 21
144.052672
 31
0.0
 11
11.099873
 21
143.992282
 31
0.0
 11
11.129363
 21
143.907825
 31
0.0
  0
LWPOLYLINE
  5
105
100
AcDbEntity
  8
text
 62
1
100
AcDbPolyline
 90
2
 70
1
 10
11.129363
 20
143.907825
 30
0.0
 10
11.129363
 20
143.907825
 30
0.0
  0
LWPOLYLINE
  5
106
100
AcDbEntity
  8
text
 62
1
100
AcDbPolyline
 90
2
 70
0
 10
35.871113
 20
243.423915
 30
0.0
 10
38.231549
 20
243.423915
 30
0.0
  0
SPLINE
  5
107
100
AcDbEntity
  8
text
 62
1
100
AcDbSpline
 70
0
 71
3
 72
19
 73
15
 74
13
 40
0.000000
 40
0.000000
 40
0.000000
 40
0.000000
 40
1.596253
 40
3.049872
 40
4.646908
 40
6.242775
 40
7.695600
 40
9.291737
 40
10.887723
 40
12.340603
 40
13.936488
 40
15.533542
 40
16.987217
 40
18.583317
 40
18.583317
 40
18.583317
 40
18.583317
 10
34.098757
 20
243.423915
 30
0.0
 10
34.161967
 20
243.966309
 30
0.0
 10
34.282739
 20
245.002630
 30
0.0
 10
35.480236
 20
246.165335
 30
0.0
 10
37.049322
 20
246.485679
 30
0.0
 10
38.630605
 20
246.165342
 30
0.0
 10
39.792016
 20
245.002241
 30
0.0
 10
40.112153
 20
243.423961
 30
0.0
 10
39.791959
 20
241.845700
 30
0.0
 10
38.630627
 20
240.682584
 30
0.0
 10
37.049322
 20
240.362103
 30
0.0
 10
35.480214
 20
240.682593
 30
0.0
 10
34.282797
 20
241.845307
 30
0.0
 10
34.161984
 20
242.881581
 30
0.0
 10
34.098757
 20
243.423915
 30
0.0
 11
34.098757
 21
243.423915
 31
0.0
 11
34.470598
 21
244.976255
 31
0.0
 11
35.498684
 21
246.003897
 31
0.0
 11
37.051860
 21
246.375607
 31
0.0
 11
38.603834
 21
246.003897
 31
0.0
 11
39.630796
 21
244.976255
 31
0.0
 11
40.002141
 21
243.423915
 31
0.0
 11
39.630796
 21
241.871732
 31
0.0
 11
38.603834
 21
240.844012
 31
0.0
 11
37.051860
 21
240.472224
 31
0.0
 11
35.498684
 21
240.844012
 31
0.0
 11
34.470598
 21
241.871732
 31
0.0
 11
34.098757
 21
243.423915
 31
0.0
  0
LWPOLYLINE
  5
108
100
AcDbEntity
  8
text
 62
1
100
AcDbPolyline
 90
2
 70
0
 10
37.051860
 20
242.243168
 30
0.0
 10
37.051860
 20
244.605015
 30
0.0
  0
LWPOLYLINE
  5
109
100
AcDbEntity
  8
text
 62
1
100
AcDbPolyline
 90
2
 70
0
 10
36.230265
 20
252.933839
 30
0.0
 10
38.590701
 20
252.933839
 30
0.0
  0
SPLINE
  5
10a
100
AcDbEntity
  8
text
 62
1
100
AcDbSpline
 70
0
 71
3
 72
19
 73
15
 74
13
 40
0.000000
 40
0.000000
 40
0.000000
 40
0.000000
 40
1.596253
 40
3.049872
 40
4.646908
 40
6.242775
 40
7.695600
 40
9.291737
 40
10.887723
 40
12.340603
 40
13.936488
 40
15.533542
 40
16.987217
 40
18.583317
 40
18.583317
 40
18.583317
 40
18.583317
 10
34.457910
 20
252.933839
 30
0.0
 10
34.521119
 20
253.476233
 30
0.0
 10
34.641891
 20
254.512554
 30
0.0
 10
35.839388
 20
255.675258
 30
0.0
 10
37.408474
 20
255.995603
 30
0.0
 10
38.989757
 20
255.675266
 30
0.0
 10
40.151168
 20
254.512165
 30
0.0
 10
40.471305
 20
252.933884
 30
0.0
 10
40.151111
 20
251.355623
 30
0.0
 10
38.989779
 20
250.192508
 30
0.0
 10
37.408474
 20
249.872027
 30
0.0
 10
35.839366
 20
250.192516
 30
0.0
 10
34.641949
 20
251.355231
 30
0.0
 10
34.521137
 20
252.391505
 30
0.0
 10
34.457910
 20
252.933839
 30
0.0
 11
34.457910
 21
252.933839
 31
0.0
 11
34.829750
 21
254.486179
 31
0.0
 11
35.857836
 21
255.513821
 31
0.0
 11
37.411012
 21
255.885531
 31
0.0
 11
38.962986
 21
255.513821
 31
0.0
 11
39.989949
 21
254.486179
 31
0.0
 11
40.361293
 21
252.933839
 31
0.0
 11
39.989949
 21
251.381656
 31
0.0
 11
38.962986
 21
250.353936
 31
0.0
 11
37.411012
 21
249.982147
 31
0.0
 11
35.857836
 21
250.353936
 31
0.0
 11
34.829750
 21
251.381656
 31
0.0
 11
34.457910
 21
252.933839
 31
0.0
  0
LWPOLYLINE
  5
10b
100
AcDbEntity
  8
text
 62
1
100
AcDbPolyline
 90
2
 70
0
 10
37.411012
 20
251.753092
 30
0.0
 10
37.411012
 20
254.114939
 30
0.0
  0
LWPOLYLINE
  5
10c
100
AcDbEntity
  8
text
 62
1
100
AcDbPolyline
 90
2
 70
0
 10
35.871113
 20
235.059413
 30
0.0
 10
38.231549
 20
235.059413
 30
0.0
  0
SPLINE
  5
10d
100
AcDbEntity
  8
text
 62
1
100
AcDbSpline
 70
0
 71
3
 72
19
 73
15
 74
13
 40
0.000000
 40
0.000000
 40
0.000000
 40
0.000000
 40
1.596253
 40
3.049872
 40
4.646908
 40
6.242775
 40
7.695600
 40
9.291737
 40
10.887723
 40
12.340603
 40
13.936488
 40
15.533542
 40
16.987217
 40
18.583317
 40
18.583317
 40
18.583317
 40
18.583317
 10
34.098757
 20
235.059413
 30
0.0
 10
34.161967
 20
235.601807
 30
0.0
 10
34.282739
 20
236.638128
 30
0.0
 10
35.480236
 20
237.800832
 30
0.0
 10
37.049322
 20
238.121177
 30
0.0
 10
38.630605
 20
237.800840
 30
0.0
 10
39.792016
 20
236.637739
 30
0.0
 10
40.112153
 20
235.059458
 30
0.0
 10
39.791959
 20
233.481197
 30
0.0
 10
38.630627
 20
232.318082
 30
0.0
 10
37.049322
 20
231.997601
 30
0.0
 10
35.480214
 20
232.318091
 30
0.0
 10
34.282797
 20
233.480805
 30
0.0
 10
34.161984
 20
234.517079
 30
0.0
 10
34.098757
 20
235.059413
 30
0.0
 11
34.098757
 21
235.059413
 31
0.0
 11
34.470598
 21
236.611753
 31
0.0
 11
35.498684
 21
237.639395
 31
0.0
 11
37.051860
 21
238.011105
 31
0.0
 11
38.603834
 21
237.639395
 31
0.0
 11
39.630796
 21
236.611753
 31
0.0
 11
40.002141
 21
235.059413
 31
0.0
 11
39.630796
 21
233.507230
 31
0.0
 11
38.603834
 21
232.479510
 31
0.0
 11
37.051860
 21
232.107722
 31
0.0
 11
35.498684
 21
232.479510
 31
0.0
 11
34.470598
 21
233.507230
 31
0.0
 11
34.098757
 21
235.059413
 31
0.0
  0
LWPOLYLINE
  5
10e
100
AcDbEntity
  8
text
 62
1
100
AcDbPolyline
 90
2
 70
0
 10
37.051860
 20
233.878666
 30
0.0
 10
37.051860
 20
236.240513
 30
0.0
  0
LWPOLYLINE
  5
10f
100
AcDbEntity
  8
text
 62
1
100
AcDbPolyline
 90
2
 70
0
 10
36.230265
 20
158.777843
 30
0.0
 10
38.590701
 20
158.777843
 30
0.0
  0
SPLINE
  5
110
100
AcDbEntity
  8
text
 62
1
100
AcDbSpline
 70
0
 71
3
 72
19
 73
15
 74
13
 40
0.000000
 40
0.000000
 40
0.000000
 40
0.000000
 40
1.596253
 40
3.049872
 40
4.646908
 40
6.242775
 40
7.695600
 40
9.291737
 40
10.887723
 40
12.340603
 40
13.936488
 40
15.533542
 40
16.987217
 40
18.583317
 40
18.583317
 40
18.583317
 40
18.583317
 10
34.457910
 20
158.777843
 30
0.0
 10
34.521119
 20
159.320236
 30
0.0
 10
34.641891
 20
160.356557
 30
0.0
 10
35.839388
 20
161.519262
 30
0.0
 10
37.408474
 20
161.839606
 30
0.0
 10
38.989757
 20
161.519269
 30
0.0
 10
40.151168
 20
160.356168
 30
0.0
 10
40.471305
 20
158.777888
 30
0.0
 10
40.151111
 20
157.199627
 30
0.0
 10
38.989779
 20
156.036511
 30
0.0
 10
37.408474
 20
155.716030
 30
0.0
 10
35.839366
 20
156.036520
 30
0.0
 10
34.641949
 20
157.199234
 30
0.0
 10
34.521137
 20
158.235508
 30
0.0
 10
34.457910
 20
158.777843
 30
0.0
 11
34.457910
 21
158.777843
 31
0.0
 11
34.829750
 21
160.330182
 31
0.0
 11
35.857836
 21
161.357824
 31
0.0
 11
37.411012
 21
161.729534
 31
0.0
 11
38.962986
 21
161.357824
 31
0.0
 11
39.989949
 21
160.330182
 31
0.0
 11
40.361293
 21
158.777843
 31
0.0
 11
39.989949
 21
157.225659
 31
0.0
 11
38.962986
 21
156.197939
 31
0.0
 11
37.411012
 21
155.826151
 31
0.0
 11
35.857836
 21
156.197939
 31
0.0
 11
34.829750
 21
157.225659
 31
0.0
 11
34.457910
 21
158.777843
 31
0.0
  0
LWPOLYLINE
  5
111
100
AcDbEntity
  8
text
 62
1
100
AcDbPolyline
 90
2
 70
0
 10
37.411012
 20
157.597095
 30
0.0
 10
37.411012
 20
159.958943
 30
0.0
  0
LWPOLYLINE
  5
112
100
AcDbEntity
  8
text
 62
1
100
AcDbPolyline
 90
2
 70
0
 10
35.871113
 20
226.777842
 30
0.0
 10
38.231549
 20
226.777842
 30
0.0
  0
SPLINE
  5
113
100
AcDbEntity
  8
text
 62
1
100
AcDbSpline
 70
0
 71
3
 72
19
 73
15
 74
13
 40
0.000000
 40
0.000000
 40
0.000000
 40
0.000000
 40
1.596253
 40
3.049872
 40
4.646908
 40
6.242775
 40
7.695600
 40
9.291737
 40
10.887723
 40
12.340603
 40
13.936488
 40
15.533542
 40
16.987217
 40
18.583317
 40
18.583317
 40
18.583317
 40
18.583317
 10
34.098757
 20
226.777842
 30
0.0
 10
34.161967
 20
227.320236
 30
0.0
 10
34.282739
 20
228.356557
 30
0.0
 10
35.480236
 20
229.519261
 30
0.0
 10
37.049322
 20
229.839606
 30
0.0
 10
38.630605
 20
229.519269
 30
0.0
 10
39.792016
 20
228.356168
 30
0.0
 10
40.112153
 20
226.777887
 30
0.0
 10
39.791959
 20
225.199626
 30
0.0
 10
38.630627
 20
224.036511
 30
0.0
 10
37.049322
 20
223.716029
 30
0.0
 10
35.480214
 20
224.036519
 30
0.0
 10
34.282797
 20
225.199234
 30
0.0
 10
34.161984
 20
226.235508
 30
0.0
 10
34.098757
 20
226.777842
 30
0.0
 11
34.098757
 21
226.777842
 31
0.0
 11
34.470598
 21
228.330182
 31
0.0
 11
35.498684
 21
229.357823
 31
0.0
 11
37.051860
 21
229.729534
 31
0.0
 11
38.603834
 21
229.357823
 31
0.0
 11
39.630796
 21
228.330182
 31
0.0
 11
40.002141
 21
226.777842
 31
0.0
 11
39.630796
 21
225.225659
 31
0.0
 11
38.603834
 21
224.197939
 31
0.0
 11
37.051860
 21
223.826150
 31
0.0
 11
35.498684
 21
224.197939
 31
0.0
 11
34.470598
 21
225.225659
 31
0.0
 11
34.098757
 21
226.777842
 31
0.0
  0
LWPOLYLINE
  5
114
100
AcDbEntity
  8
text
 62
1
100
AcDbPolyline
 90
2
 70
0
 10
37.051860
 20
225.597095
 30
0.0
 10
37.051860
 20
227.958942
 30
0.0
  0
LWPOLYLINE
  5
115
100
AcDbEntity
  8
text
 62
1
100
AcDbPolyline
 90
2
 70
0
 10
35.871113
 20
218.477842
 30
0.0
 10
38.231549
 20
218.477842
 30
0.0
  0
SPLINE
  5
116
100
AcDbEntity
  8
text
 62
1
100
AcDbSpline
 70
0
 71
3
 72
19
 73
15
 74
13
 40
0.000000
 40
0.000000
 40
0.000000
 40
0.000000
 40
1.596253
 40
3.049872
 40
4.646908
 40
6.242775
 40
7.695600
 40
9.291737
 40
10.887723
 40
12.340603
 40
13.936488
 40
15.533542
 40
16.987217
 40
18.583317
 40
18.583317
 40
18.583317
 40
18.583317
 10
34.098757
 20
218.477842
 30
0.0
 10
34.161967
 20
219.020235
 30
0.0
 10
34.282739
 20
220.056557
 30
0.0
 10
35.480236
 20
221.219261
 30
0.0
 10
37.049322
 20
221.539605
 30
0.0
 10
38.630605
 20
221.219269
 30
0.0
 10
39.792016
 20
220.056167
 30
0.0
 10
40.112153
 20
218.477887
 30
0.0
 10
39.791959
 20
216.899626
 30
0.0
 10
38.630627
 20
215.736510
 30
0.0
 10
37.049322
 20
215.416029
 30
0.0
 10
35.480214
 20
215.736519
 30
0.0
 10
34.282797
 20
216.899233
 30
0.0
 10
34.161984
 20
217.935507
 30
0.0
 10
34.098757
 20
218.477842
 30
0.0
 11
34.098757
 21
218.477842
 31
0.0
 11
34.470598
 21
220.030181
 31
0.0
 11
35.498684
 21
221.057823
 31
0.0
 11
37.051860
 21
221.429533
 31
0.0
 11
38.603834
 21
221.057823
 31
0.0
 11
39.630796
 21
220.030181
 31
0.0
 11
40.002141
 21
218.477842
 31
0.0
 11
39.630796
 21
216.925659
 31
0.0
 11
38.603834
 21
215.897939
 31
0.0
 11
37.051860
 21
215.526150
 31
0.0
 11
35.498684
 21
215.897939
 31
0.0
 11
34.470598
 21
216.925659
 31
0.0
 11
34.098757
 21
218.477842
 31
0.0
  0
LWPOLYLINE
  5
117
100
AcDbEntity
  8
text
 62
1
100
AcDbPolyline
 90
2
 70
0
 10
37.051860
 20
217.297094
 30
0.0
 10
37.051860
 20
219.658942
 30
0.0
  0
LWPOLYLINE
  5
118
100
AcDbEntity
  8
text
 62
1
100
AcDbPolyline
 90
2
 70
0
 10
35.871113
 20
210.357840
 30
0.0
 10
38.231549
 20
210.357840
 30
0.0
  0
SPLINE
  5
119
100
AcDbEntity
  8
text
 62
1
100
AcDbSpline
 70
0
 71
3
 72
19
 73
15
 74
13
 40
0.000000
 40
0.000000
 40
0.000000
 40
0.000000
 40
1.596253
 40
3.049872
 40
4.646908
 40
6.242775
 40
7.695600
 40
9.291737
 40
10.887723
 40
12.340603
 40
13.936488
 40
15.533542
 40
16.987217
 40
18.583317
 40
18.583317
 40
18.583317
 40
18.583317
 10
34.098757
 20
210.357840
 30
0.0
 10
34.161967
 20
210.900233
 30
0.0
 10
34.282739
 20
211.936555
 30
0.0
 10
35.480236
 20
213.099259
 30
0.0
 10
37.049322
 20
213.419604
 30
0.0
 10
38.630605
 20
213.099267
 30
0.0
 10
39.792016
 20
211.936165
 30
0.0
 10
40.112153
 20
210.357885
 30
0.0
 10
39.791959
 20
208.779624
 30
0.0
 10
38.630627
 20
207.616509
 30
0.0
 10
37.049322
 20
207.296027
 30
0.0
 10
35.480214
 20
207.616517
 30
0.0
 10
34.282797
 20
208.779232
 30
0.0
 10
34.161984
 20
209.815506
 30
0.0
 10
34.098757
 20
210.357840
 30
0.0
 11
34.098757
 21
210.357840
 31
0.0
 11
34.470598
 21
211.910180
 31
0.0
 11
35.498684
 21
212.937821
 31
0.0
 11
37.051860
 21
213.309531
 31
0.0
 11
38.603834
 21
212.937821
 31
0.0
 11
39.630796
 21
211.910180
 31
0.0
 11
40.002141
 21
210.357840
 31
0.0
 11
39.630796
 21
208.805657
 31
0.0
 11
38.603834
 21
207.777937
 31
0.0
 11
37.051860
 21
207.406148
 31
0.0
 11
35.498684
 21
207.777937
 31
0.0
 11
34.470598
 21
208.805657
 31
0.0
 11
34.098757
 21
210.357840
 31
0.0
  0
LWPOLYLINE
  5
11a
100
AcDbEntity
  8
text
 62
1
100
AcDbPolyline
 90
2
 70
0
 10
37.051860
 20
209.177093
 30
0.0
 10
37.051860
 20
211.538940
 30
0.0
  0
LWPOLYLINE
  5
11b
100
AcDbEntity
  8
text
 62
1
100
AcDbPolyline
 90
2
 70
0
 10
35.871113
 20
202.047840
 30
0.0
 10
38.231549
 20
202.047840
 30
0.0
  0
SPLINE
  5
11c
100
AcDbEntity
  8
text
 62
1
100
AcDbSpline
 70
0
 71
3
 72
19
 73
15
 74
13
 40
0.000000
 40
0.000000
 40
0.000000
 40
0.000000
 40
1.596253
 40
3.049872
 40
4.646908
 40
6.242775
 40
7.695600
 40
9.291737
 40
10.887723
 40
12.340603
 40
13.936488
 40
15.533542
 40
16.987217
 40
18.583317
 40
18.583317
 40
18.583317
 40
18.583317
 10
34.098757
 20
202.047840
 30
0.0
 10
34.161967
 20
202.590234
 30
0.0
 10
34.282739
 20
203.626555
 30
0.0
 10
35.480236
 20
204.789259
 30
0.0
 10
37.049322
 20
205.109604
 30
0.0
 10
38.630605
 20
204.789267
 30
0.0
 10
39.792016
 20
203.626166
 30
0.0
 10
40.112153
 20
202.047886
 30
0.0
 10
39.791959
 20
200.469625
 30
0.0
 10
38.630627
 20
199.306509
 30
0.0
 10
37.049322
 20
198.986028
 30
0.0
 10
35.480214
 20
199.306518
 30
0.0
 10
34.282797
 20
200.469232
 30
0.0
 10
34.161984
 20
201.505506
 30
0.0
 10
34.098757
 20
202.047840
 30
0.0
 11
34.098757
 21
202.047840
 31
0.0
 11
34.470598
 21
203.600180
 31
0.0
 11
35.498684
 21
204.627822
 31
0.0
 11
37.051860
 21
204.999532
 31
0.0
 11
38.603834
 21
204.627822
 31
0.0
 11
39.630796
 21
203.600180
 31
0.0
 11
40.002141
 21
202.047840
 31
0.0
 11
39.630796
 21
200.495657
 31
0.0
 11
38.603834
 21
199.467937
 31
0.0
 11
37.051860
 21
199.096149
 31
0.0
 11
35.498684
 21
199.467937
 31
0.0
 11
34.470598
 21
200.495657
 31
0.0
 11
34.098757
 21
202.047840
 31
0.0
  0
LWPOLYLINE
  5
11d
100
AcDbEntity
  8
text
 62
1
100
AcDbPolyline
 90
2
 70
0
 10
37.051860
 20
200.867093
 30
0.0
 10
37.051860
 20
203.228940
 30
0.0
  0
LWPOLYLINE
  5
11e
100
AcDbEntity
  8
text
 62
1
100
AcDbPolyline
 90
2
 70
0
 10
35.871113
 20
193.824842
 30
0.0
 10
38.231549
 20
193.824842
 30
0.0
  0
SPLINE
  5
11f
100
AcDbEntity
  8
text
 62
1
100
AcDbSpline
 70
0
 71
3
 72
19
 73
15
 74
13
 40
0.000000
 40
0.000000
 40
0.000000
 40
0.000000
 40
1.596253
 40
3.049872
 40
4.646908
 40
6.242775
 40
7.695600
 40
9.291737
 40
10.887723
 40
12.340603
 40
13.936488
 40
15.533542
 40
16.987217
 40
18.583317
 40
18.583317
 40
18.583317
 40
18.583317
 10
34.098757
 20
193.824842
 30
0.0
 10
34.161967
 20
194.367235
 30
0.0
 10
34.282739
 20
195.403556
 30
0.0
 10
35.480236
 20
196.566261
 30
0.0
 10
37.049322
 20
196.886605
 30
0.0
 10
38.630605
 20
196.566269
 30
0.0
 10
39.792016
 20
195.403167
 30
0.0
 10
40.112153
 20
193.824887
 30
0.0
 10
39.791959
 20
192.246626
 30
0.0
 10
38.630627
 20
191.083510
 30
0.0
 10
37.049322
 20
190.763029
 30
0.0
 10
35.480214
 20
191.083519
 30
0.0
 10
34.282797
 20
192.246233
 30
0.0
 10
34.161984
 20
193.282507
 30
0.0
 10
34.098757
 20
193.824842
 30
0.0
 11
34.098757
 21
193.824842
 31
0.0
 11
34.470598
 21
195.377181
 31
0.0
 11
35.498684
 21
196.404823
 31
0.0
 11
37.051860
 21
196.776533
 31
0.0
 11
38.603834
 21
196.404823
 31
0.0
 11
39.630796
 21
195.377181
 31
0.0
 11
40.002141
 21
193.824842
 31
0.0
 11
39.630796
 21
192.272659
 31
0.0
 11
38.603834
 21
191.244938
 31
0.0
 11
37.051860
 21
190.873150
 31
0.0
 11
35.498684
 21
191.244938
 31
0.0
 11
34.470598
 21
192.272659
 31
0.0
 11
34.098757
 21
193.824842
 31
0.0
  0
LWPOLYLINE
  5
120
100
AcDbEntity
  8
text
 62
1
100
AcDbPolyline
 90
2
 70
0
 10
37.051860
 20
192.644094
 30
0.0
 10
37.051860
 20
195.005942
 30
0.0
  0
LWPOLYLINE
  5
121
100
AcDbEntity
  8
text
 62
1
100
AcDbPolyline
 90
2
 70
0
 10
35.871113
 20
185.477840
 30
0.0
 10
38.231549
 20
185.477840
 30
0.0
  0
SPLINE
  5
122
100
AcDbEntity
  8
text
 62
1
100
AcDbSpline
 70
0
 71
3
 72
19
 73
15
 74
13
 40
0.000000
 40
0.000000
 40
0.000000
 40
0.000000
 40
1.596253
 40
3.049872
 40
4.646908
 40
6.242775
 40
7.695600
 40
9.291737
 40
10.887723
 40
12.340603
 40
13.936488
 40
15.533542
 40
16.987217
 40
18.583317
 40
18.583317
 40
18.583317
 40
18.583317
 10
34.098757
 20
185.477840
 30
0.0
 10
34.161967
 20
186.020234
 30
0.0
 10
34.282739
 20
187.056555
 30
0.0
 10
35.480236
 20
188.219259
 30
0.0
 10
37.049322
 20
188.539604
 30
0.0
 10
38.630605
 20
188.219267
 30
0.0
 10
39.792016
 20
187.056165
 30
0.0
 10
40.112153
 20
185.477885
 30
0.0
 10
39.791959
 20
183.899624
 30
0.0
 10
38.630627
 20
182.736509
 30
0.0
 10
37.049322
 20
182.416027
 30
0.0
 10
35.480214
 20
182.736517
 30
0.0
 10
34.282797
 20
183.899232
 30
0.0
 10
34.161984
 20
184.935506
 30
0.0
 10
34.098757
 20
185.477840
 30
0.0
 11
34.098757
 21
185.477840
 31
0.0
 11
34.470598
 21
187.030180
 31
0.0
 11
35.498684
 21
188.057821
 31
0.0
 11
37.051860
 21
188.429532
 31
0.0
 11
38.603834
 21
188.057821
 31
0.0
 11
39.630796
 21
187.030180
 31
0.0
 11
40.002141
 21
185.477840
 31
0.0
 11
39.630796
 21
183.925657
 31
0.0
 11
38.603834
 21
182.897937
 31
0.0
 11
37.051860
 21
182.526148
 31
0.0
 11
35.498684
 21
182.897937
 31
0.0
 11
34.470598
 21
183.925657
 31
0.0
 11
34.098757
 21
185.477840
 31
0.0
  0
LWPOLYLINE
  5
123
100
AcDbEntity
  8
text
 62
1
100
AcDbPolyline
 90
2
 70
0
 10
37.051860
 20
184.297093
 30
0.0
 10
37.051860
 20
186.658940
 30
0.0
  0
LWPOLYLINE
  5
124
100
AcDbEntity
  8
text
 62
1
100
AcDbPolyline
 90
2
 70
0
 10
35.871113
 20
177.185841
 30
0.0
 10
38.231549
 20
177.185841
 30
0.0
  0
SPLINE
  5
125
100
AcDbEntity
  8
text
 62
1
100
AcDbSpline
 70
0
 71
3
 72
19
 73
15
 74
13
 40
0.000000
 40
0.000000
 40
0.000000
 40
0.000000
 40
1.596253
 40
3.049872
 40
4.646908
 40
6.242775
 40
7.695600
 40
9.291737
 40
10.887723
 40
12.340603
 40
13.936488
 40
15.533542
 40
16.987217
 40
18.583317
 40
18.583317
 40
18.583317
 40
18.583317
 10
34.098757
 20
177.185841
 30
0.0
 10
34.161967
 20
177.728234
 30
0.0
 10
34.282739
 20
178.764555
 30
0.0
 10
35.480236
 20
179.927260
 30
0.0
 10
37.049322
 20
180.247604
 30
0.0
 10
38.630605
 20
179.927268
 30
0.0
 10
39.792016
 20
178.764166
 30
0.0
 10
40.112153
 20
177.185886
 30
0.0
 10
39.791959
 20
175.607625
 30
0.0
 10
38.630627
 20
174.444509
 30
0.0
 10
37.049322
 20
174.124028
 30
0.0
 10
35.480214
 20
174.444518
 30
0.0
 10
34.282797
 20
175.607232
 30
0.0
 10
34.161984
 20
176.643506
 30
0.0
 10
34.098757
 20
177.185841
 30
0.0
 11
34.098757
 21
177.185841
 31
0.0
 11
34.470598
 21
178.738180
 31
0.0
 11
35.498684
 21
179.765822
 31
0.0
 11
37.051860
 21
180.137532
 31
0.0
 11
38.603834
 21
179.765822
 31
0.0
 11
39.630796
 21
178.738180
 31
0.0
 11
40.002141
 21
177.185841
 31
0.0
 11
39.630796
 21
175.633658
 31
0.0
 11
38.603834
 21
174.605937
 31
0.0
 11
37.051860
 21
174.234149
 31
0.0
 11
35.498684
 21
174.605937
 31
0.0
 11
34.470598
 21
175.633658
 31
0.0
 11
34.098757
 21
177.185841
 31
0.0
  0
LWPOLYLINE
  5
126
100
AcDbEntity
  8
text
 62
1
100
AcDbPolyline
 90
2
 70
0
 10
37.051860
 20
176.005093
 30
0.0
 10
37.051860
 20
178.366941
 30
0.0
  0
LWPOLYLINE
  5
127
100
AcDbEntity
  8
text
 62
1
100
AcDbPolyline
 90
2
 70
0
 10
35.871113
 20
169.019413
 30
0.0
 10
38.231549
 20
169.019413
 30
0.0
  0
SPLINE
  5
128
100
AcDbEntity
  8
text
 62
1
100
AcDbSpline
 70
0
 71
3
 72
19
 73
15
 74
13
 40
0.000000
 40
0.000000
 40
0.000000
 40
0.000000
 40
1.596253
 40
3.049872
 40
4.646908
 40
6.242775
 40
7.695600
 40
9.291737
 40
10.887723
 40
12.340603
 40
13.936488
 40
15.533542
 40
16.987217
 40
18.583317
 40
18.583317
 40
18.583317
 40
18.583317
 10
34.098757
 20
169.019413
 30
0.0
 10
34.161967
 20
169.561807
 30
0.0
 10
34.282739
 20
170.598128
 30
0.0
 10
35.480236
 20
171.760832
 30
0.0
 10
37.049322
 20
172.081177
 30
0.0
 10
38.630605
 20
171.760840
 30
0.0
 10
39.792016
 20
170.597739
 30
0.0
 10
40.112153
 20
169.019458
 30
0.0
 10
39.791959
 20
167.441197
 30
0.0
 10
38.630627
 20
166.278082
 30
0.0
 10
37.049322
 20
165.957601
 30
0.0
 10
35.480214
 20
166.278091
 30
0.0
 10
34.282797
 20
167.440805
 30
0.0
 10
34.161984
 20
168.477079
 30
0.0
 10
34.098757
 20
169.019413
 30
0.0
 11
34.098757
 21
169.019413
 31
0.0
 11
34.470598
 21
170.571753
 31
0.0
 11
35.498684
 21
171.599395
 31
0.0
 11
37.051860
 21
171.971105
 31
0.0
 11
38.603834
 21
171.599395
 31
0.0
 11
39.630796
 21
170.571753
 31
0.0
 11
40.002141
 21
169.019413
 31
0.0
 11
39.630796
 21
167.467230
 31
0.0
 11
38.603834
 21
166.439510
 31
0.0
 11
37.051860
 21
166.067722
 31
0.0
 11
35.498684
 21
166.439510
 31
0.0
 11
34.470598
 21
167.467230
 31
0.0
 11
34.098757
 21
169.019413
 31
0.0
  0
LWPOLYLINE
  5
129
100
AcDbEntity
  8
text
 62
1
100
AcDbPolyline
 90
2
 70
0
 10
37.051860
 20
167.838666
 30
0.0
 10
37.051860
 20
170.200513
 30
0.0
  0
LWPOLYLINE
  5
12a
100
AcDbEntity
  8
text
 62
1
100
AcDbPolyline
 90
2
 70
0
 10
22.888891
 20
243.423915
 30
0.0
 10
25.249327
 20
243.423915
 30
0.0
  0
SPLINE
  5
12b
100
AcDbEntity
  8
text
 62
1
100
AcDbSpline
 70
0
 71
3
 72
19
 73
15
 74
13
 40
0.000000
 40
0.000000
 40
0.000000
 40
0.000000
 40
1.596253
 40
3.049872
 40
4.646908
 40
6.242775
 40
7.695600
 40
9.291737
 40
10.887723
 40
12.340603
 40
13.936488
 40
15.533542
 40
16.987217
 40
18.583317
 40
18.583317
 40
18.583317
 40
18.583317
 10
21.116535
 20
243.423915
 30
0.0
 10
21.179745
 20
243.966309
 30
0.0
 10
21.300516
 20
245.002630
 30
0.0
 10
22.498014
 20
246.165335
 30
0.0
 10
24.067100
 20
246.485679
 30
0.0
 10
25.648383
 20
246.165342
 30
0.0
 10
26.809794
 20
245.002241
 30
0.0
 10
27.129930
 20
243.423961
 30
0.0
 10
26.809737
 20
241.845700
 30
0.0
 10
25.648404
 20
240.682584
 30
0.0
 10
24.067100
 20
240.362103
 30
0.0
 10
22.497992
 20
240.682593
 30
0.0
 10
21.300575
 20
241.845307
 30
0.0
 10
21.179762
 20
242.881581
 30
0.0
 10
21.116535
 20
243.423915
 30
0.0
 11
21.116535
 21
243.423915
 31
0.0
 11
21.488376
 21
244.976255
 31
0.0
 11
22.516462
 21
246.003897
 31
0.0
 11
24.069638
 21
246.375607
 31
0.0
 11
25.621612
 21
246.003897
 31
0.0
 11
26.648574
 21
244.976255
 31
0.0
 11
27.019918
 21
243.423915
 31
0.0
 11
26.648574
 21
241.871732
 31
0.0
 11
25.621612
 21
240.844012
 31
0.0
 11
24.069638
 21
240.472224
 31
0.0
 11
22.516462
 21
240.844012
 31
0.0
 11
21.488376
 21
241.871732
 31
0.0
 11
21.116535
 21
243.423915
 31
0.0
  0
LWPOLYLINE
  5
12c
100
AcDbEntity
  8
text
 62
1
100
AcDbPolyline
 90
2
 70
0
 10
24.069638
 20
242.243168
 30
0.0
 10
24.069638
 20
244.605015
 30
0.0
  0
LWPOLYLINE
  5
12d
100
AcDbEntity
  8
text
 62
1
100
AcDbPolyline
 90
2
 70
0
 10
22.888891
 20
235.059413
 30
0.0
 10
25.249327
 20
235.059413
 30
0.0
  0
SPLINE
  5
12e
100
AcDbEntity
  8
text
 62
1
100
AcDbSpline
 70
0
 71
3
 72
19
 73
15
 74
13
 40
0.000000
 40
0.000000
 40
0.000000
 40
0.000000
 40
1.596253
 40
3.049872
 40
4.646908
 40
6.242775
 40
7.695600
 40
9.291737
 40
10.887723
 40
12.340603
 40
13.936488
 40
15.533542
 40
16.987217
 40
18.583317
 40
18.583317
 40
18.583317
 40
18.583317
 10
21.116535
 20
235.059413
 30
0.0
 10
21.179745
 20
235.601807
 30
0.0
 10
21.300516
 20
236.638128
 30
0.0
 10
22.498014
 20
237.800832
 30
0.0
 10
24.067100
 20
238.121177
 30
0.0
 10
25.648383
 20
237.800840
 30
0.0
 10
26.809794
 20
236.637739
 30
0.0
 10
27.129930
 20
235.059458
 30
0.0
 10
26.809737
 20
233.481197
 30
0.0
 10
25.648404
 20
232.318082
 30
0.0
 10
24.067100
 20
231.997601
 30
0.0
 10
22.497992
 20
232.318091
 30
0.0
 10
21.300575
 20
233.480805
 30
0.0
 10
21.179762
 20
234.517079
 30
0.0
 10
21.116535
 20
235.059413
 30
0.0
 11
21.116535
 21
235.059413
 31
0.0
 11
21.488376
 21
236.611753
 31
0.0
 11
22.516462
 21
237.639395
 31
0.0
 11
24.069638
 21
238.011105
 31
0.0
 11
25.621612
 21
237.639395
 31
0.0
 11
26.648574
 21
236.611753
 31
0.0
 11
27.019918
 21
235.059413
 31
0.0
 11
26.648574
 21
233.507230
 31
0.0
 11
25.621612
 21
232.479510
 31
0.0
 11
24.069638
 21
232.107722
 31
0.0
 11
22.516462
 21
232.479510
 31
0.0
 11
21.488376
 21
233.507230
 31
0.0
 11
21.116535
 21
235.059413
 31
0.0
  0
LWPOLYLINE
  5
12f
100
AcDbEntity
  8
text
 62
1
100
AcDbPolyline
 90
2
 70
0
 10
24.069638
 20
233.878666
 30
0.0
 10
24.069638
 20
236.240513
 30
0.0
  0
LWPOLYLINE
  5
130
100
AcDbEntity
  8
text
 62
1
100
AcDbPolyline
 90
2
 70
0
 10
22.888891
 20
226.777842
 30
0.0
 10
25.249327
 20
226.777842
 30
0.0
  0
SPLINE
  5
131
100
AcDbEntity
  8
text
 62
1
100
AcDbSpline
 70
0
 71
3
 72
19
 73
15
 74
13
 40
0.000000
 40
0.000000
 40
0.000000
 40
0.000000
 40
1.596253
 40
3.049872
 40
4.646908
 40
6.242775
 40
7.695600
 40
9.291737
 40
10.887723
 40
12.340603
 40
13.936488
 40
15.533542
 40
16.987217
 40
18.583317
 40
18.583317
 40
18.583317
 40
18.583317
 10
21.116535
 20
226.777842
 30
0.0
 10
21.179745
 20
227.320236
 30
0.0
 10
21.300516
 20
228.356557
 30
0.0
 10
22.498014
 20
229.519261
 30
0.0
 10
24.067100
 20
229.839606
 30
0.0
 10
25.648383
 20
229.519269
 30
0.0
 10
26.809794
 20
228.356168
 30
0.0
 10
27.129930
 20
226.777887
 30
0.0
 10
26.809737
 20
225.199626
 30
0.0
 10
25.648404
 20
224.036511
 30
0.0
 10
24.067100
 20
223.716029
 30
0.0
 10
22.497992
 20
224.036519
 30
0.0
 10
21.300575
 20
225.199234
 30
0.0
 10
21.179762
 20
226.235508
 30
0.0
 10
21.116535
 20
226.777842
 30
0.0
 11
21.116535
 21
226.777842
 31
0.0
 11
21.488376
 21
228.330182
 31
0.0
 11
22.516462
 21
229.357823
 31
0.0
 11
24.069638
 21
229.729534
 31
0.0
 11
25.621612
 21
229.357823
 31
0.0
 11
26.648574
 21
228.330182
 31
0.0
 11
27.019918
 21
226.777842
 31
0.0
 11
26.648574
 21
225.225659
 31
0.0
 11
25.621612
 21
224.197939
 31
0.0
 11
24.069638
 21
223.826150
 31
0.0
 11
22.516462
 21
224.197939
 31
0.0
 11
21.488376
 21
225.225659
 31
0.0
 11
21.116535
 21
226.777842
 31
0.0
  0
LWPOLYLINE
  5
132
100
AcDbEntity
  8
text
 62
1
100
AcDbPolyline
 90
2
 70
0
 10
24.069638
 20
225.597095
 30
0.0
 10
24.069638
 20
227.958942
 30
0.0
  0
LWPOLYLINE
  5
133
100
AcDbEntity
  8
text
 62
1
100
AcDbPolyline
 90
2
 70
0
 10
22.888891
 20
218.477842
 30
0.0
 10
25.249327
 20
218.477842
 30
0.0
  0
SPLINE
  5
134
100
AcDbEntity
  8
text
 62
1
100
AcDbSpline
 70
0
 71
3
 72
19
 73
15
 74
13
 40
0.000000
 40
0.000000
 40
0.000000
 40
0.000000
 40
1.596253
 40
3.049872
 40
4.646908
 40
6.242775
 40
7.695600
 40
9.291737
 40
10.887723
 40
12.340603
 40
13.936488
 40
15.533542
 40
16.987217
 40
18.583317
 40
18.583317
 40
18.583317
 40
18.583317
 10
21.116535
 20
218.477842
 30
0.0
 10
21.179745
 20
219.020235
 30
0.0
 10
21.300516
 20
220.056557
 30
0.0
 10
22.498014
 20
221.219261
 30
0.0
 10
24.067100
 20
221.539605
 30
0.0
 10
25.648383
 20
221.219269
 30
0.0
 10
26.809794
 20
220.056167
 30
0.0
 10
27.129930
 20
218.477887
 30
0.0
 10
26.809737
 20
216.899626
 30
0.0
 10
25.648404
 20
215.736510
 30
0.0
 10
24.067100
 20
215.416029
 30
0.0
 10
22.497992
 20
215.736519
 30
0.0
 10
21.300575
 20
216.899233
 30
0.0
 10
21.179762
 20
217.935507
 30
0.0
 10
21.116535
 20
218.477842
 30
0.0
 11
21.116535
 21
218.477842
 31
0.0
 11
21.488376
 21
220.030181
 31
0.0
 11
22.516462
 21
221.057823
 31
0.0
 11
24.069638
 21
221.429533
 31
0.0
 11
25.621612
 21
221.057823
 31
0.0
 11
26.648574
 21
220.030181
 31
0.0
 11
27.019918
 21
218.477842
 31
0.0
 11
26.648574
 21
216.925659
 31
0.0
 11
25.621612
 21
215.897939
 31
0.0
 11
24.069638
 21
215.526150
 31
0.0
 11
22.516462
 21
215.897939
 31
0.0
 11
21.488376
 21
216.925659
 31
0.0
 11
21.116535
 21
218.477842
 31
0.0
  0
LWPOLYLINE
  5
135
100
AcDbEntity
  8
text
 62
1
100
AcDbPolyline
 90
2
 70
0
 10
24.069638
 20
217.297094
 30
0.0
 10
24.069638
 20
219.658942
 30
0.0
  0
LWPOLYLINE
  5
136
100
AcDbEntity
  8
text
 62
1
100
AcDbPolyline
 90
2
 70
0
 10
22.888891
 20
210.357840
 30
0.0
 10
25.249327
 20
210.357840
 30
0.0
  0
SPLINE
  5
137
100
AcDbEntity
  8
text
 62
1
100
AcDbSpline
 70
0
 71
3
 72
19
 73
15
 74
13
 40
0.000000
 40
0.000000
 40
0.000000
 40
0.000000
 40
1.596253
 40
3.049872
 40
4.646908
 40
6.242775
 40
7.695600
 40
9.291737
 40
10.887723
 40
12.340603
 40
13.936488
 40
15.533542
 40
16.987217
 40
18.583317
 40
18.583317
 40
18.583317
 40
18.583317
 10
21.116535
 20
210.357840
 30
0.0
 10
21.179745
 20
210.900233
 30
0.0
 10
21.300516
 20
211.936555
 30
0.0
 10
22.498014
 20
213.099259
 30
0.0
 10
24.067100
 20
213.419604
 30
0.0
 10
25.648383
 20
213.099267
 30
0.0
 10
26.809794
 20
211.936165
 30
0.0
 10
27.129930
 20
210.357885
 30
0.0
 10
26.809737
 20
208.779624
 30
0.0
 10
25.648404
 20
207.616509
 30
0.0
 10
24.067100
 20
207.296027
 30
0.0
 10
22.497992
 20
207.616517
 30
0.0
 10
21.300575
 20
208.779232
 30
0.0
 10
21.179762
 20
209.815506
 30
0.0
 10
21.116535
 20
210.357840
 30
0.0
 11
21.116535
 21
210.357840
 31
0.0
 11
21.488376
 21
211.910180
 31
0.0
 11
22.516462
 21
212.937821
 31
0.0
 11
24.069638
 21
213.309531
 31
0.0
 11
25.621612
 21
212.937821
 31
0.0
 11
26.648574
 21
211.910180
 31
0.0
 11
27.019918
 21
210.357840
 31
0.0
 11
26.648574
 21
208.805657
 31
0.0
 11
25.621612
 21
207.777937
 31
0.0
 11
24.069638
 21
207.406148
 31
0.0
 11
22.516462
 21
207.777937
 31
0.0
 11
21.488376
 21
208.805657
 31
0.0
 11
21.116535
 21
210.357840
 31
0.0
  0
LWPOLYLINE
  5
138
100
AcDbEntity
  8
text
 62
1
100
AcDbPolyline
 90
2
 70
0
 10
24.069638
 20
209.177093
 30
0.0
 10
24.069638
 20
211.538940
 30
0.0
  0
LWPOLYLINE
  5
139
100
AcDbEntity
  8
text
 62
1
100
AcDbPolyline
 90
2
 70
0
 10
22.888891
 20
202.047840
 30
0.0
 10
25.249327
 20
202.047840
 30
0.0
  0
SPLINE
  5
13a
100
AcDbEntity
  8
text
 62
1
100
AcDbSpline
 70
0
 71
3
 72
19
 73
15
 74
13
 40
0.000000
 40
0.000000
 40
0.000000
 40
0.000000
 40
1.596253
 40
3.049872
 40
4.646908
 40
6.242775
 40
7.695600
 40
9.291737
 40
10.887723
 40
12.340603
 40
13.936488
 40
15.533542
 40
16.987217
 40
18.583317
 40
18.583317
 40
18.583317
 40
18.583317
 10
21.116535
 20
202.047840
 30
0.0
 10
21.179745
 20
202.590234
 30
0.0
 10
21.300516
 20
203.626555
 30
0.0
 10
22.498014
 20
204.789259
 30
0.0
 10
24.067100
 20
205.109604
 30
0.0
 10
25.648383
 20
204.789267
 30
0.0
 10
26.809794
 20
203.626166
 30
0.0
 10
27.129930
 20
202.047886
 30
0.0
 10
26.809737
 20
200.469625
 30
0.0
 10
25.648404
 20
199.306509
 30
0.0
 10
24.067100
 20
198.986028
 30
0.0
 10
22.497992
 20
199.306518
 30
0.0
 10
21.300575
 20
200.469232
 30
0.0
 10
21.179762
 20
201.505506
 30
0.0
 10
21.116535
 20
202.047840
 30
0.0
 11
21.116535
 21
202.047840
 31
0.0
 11
21.488376
 21
203.600180
 31
0.0
 11
22.516462
 21
204.627822
 31
0.0
 11
24.069638
 21
204.999532
 31
0.0
 11
25.621612
 21
204.627822
 31
0.0
 11
26.648574
 21
203.600180
 31
0.0
 11
27.019918
 21
202.047840
 31
0.0
 11
26.648574
 21
200.495657
 31
0.0
 11
25.621612
 21
199.467937
 31
0.0
 11
24.069638
 21
199.096149
 31
0.0
 11
22.516462
 21
199.467937
 31
0.0
 11
21.488376
 21
200.495657
 31
0.0
 11
21.116535
 21
202.047840
 31
0.0
  0
LWPOLYLINE
  5
13b
100
AcDbEntity
  8
text
 62
1
100
AcDbPolyline
 90
2
 70
0
 10
24.069638
 20
200.867093
 30
0.0
 10
24.069638
 20
203.228940
 30
0.0
  0
LWPOLYLINE
  5
13c
100
AcDbEntity
  8
text
 62
1
100
AcDbPolyline
 90
2
 70
0
 10
22.888891
 20
193.824842
 30
0.0
 10
25.249327
 20
193.824842
 30
0.0
  0
SPLINE
  5
13d
100
AcDbEntity
  8
text
 62
1
100
AcDbSpline
 70
0
 71
3
 72
19
 73
15
 74
13
 40
0.000000
 40
0.000000
 40
0.000000
 40
0.000000
 40
1.596253
 40
3.049872
 40
4.646908
 40
6.242775
 40
7.695600
 40
9.291737
 40
10.887723
 40
12.340603
 40
13.936488
 40
15.533542
 40
16.987217
 40
18.583317
 40
18.583317
 40
18.583317
 40
18.583317
 10
21.116535
 20
193.824842
 30
0.0
 10
21.179745
 20
194.367235
 30
0.0
 10
21.300516
 20
195.403556
 30
0.0
 10
22.498014
 20
196.566261
 30
0.0
 10
24.067100
 20
196.886605
 30
0.0
 10
25.648383
 20
196.566269
 30
0.0
 10
26.809794
 20
195.403167
 30
0.0
 10
27.129930
 20
193.824887
 30
0.0
 10
26.809737
 20
192.246626
 30
0.0
 10
25.648404
 20
191.083510
 30
0.0
 10
24.067100
 20
190.763029
 30
0.0
 10
22.497992
 20
191.083519
 30
0.0
 10
21.300575
 20
192.246233
 30
0.0
 10
21.179762
 20
193.282507
 30
0.0
 10
21.116535
 20
193.824842
 30
0.0
 11
21.116535
 21
193.824842
 31
0.0
 11
21.488376
 21
195.377181
 31
0.0
 11
22.516462
 21
196.404823
 31
0.0
 11
24.069638
 21
196.776533
 31
0.0
 11
25.621612
 21
196.404823
 31
0.0
 11
26.648574
 21
195.377181
 31
0.0
 11
27.019918
 21
193.824842
 31
0.0
 11
26.648574
 21
192.272659
 31
0.0
 11
25.621612
 21
191.244938
 31
0.0
 11
24.069638
 21
190.873150
 31
0.0
 11
22.516462
 21
191.244938
 31
0.0
 11
21.488376
 21
192.272659
 31
0.0
 11
21.116535
 21
193.824842
 31
0.0
  0
LWPOLYLINE
  5
13e
100
AcDbEntity
  8
text
 62
1
100
AcDbPolyline
 90
2
 70
0
 10
24.069638
 20
192.644094
 30
0.0
 10
24.069638
 20
195.005942
 30
0.0
  0
LWPOLYLINE
  5
13f
100
AcDbEntity
  8
text
 62
1
100
AcDbPolyline
 90
2
 70
0
 10
22.888891
 20
185.477840
 30
0.0
 10
25.249327
 20
185.477840
 30
0.0
  0
SPLINE
  5
140
100
AcDbEntity
  8
text
 62
1
100
AcDbSpline
 70
0
 71
3
 72
19
 73
15
 74
13
 40
0.000000
 40
0.000000
 40
0.000000
 40
0.000000
 40
1.596253
 40
3.049872
 40
4.646908
 40
6.242775
 40
7.695600
 40
9.291737
 40
10.887723
 40
12.340603
 40
13.936488
 40
15.533542
 40
16.987217
 40
18.583317
 40
18.583317
 40
18.583317
 40
18.583317
 10
21.116535
 20
185.477840
 30
0.0
 10
21.179745
 20
186.020234
 30
0.0
 10
21.300516
 20
187.056555
 30
0.0
 10
22.498014
 20
188.219259
 30
0.0
 10
24.067100
 20
188.539604
 30
0.0
 10
25.648383
 20
188.219267
 30
0.0
 10
26.809794
 20
187.056165
 30
0.0
 10
27.129930
 20
185.477885
 30
0.0
 10
26.809737
 20
183.899624
 30
0.0
 10
25.648404
 20
182.736509
 30
0.0
 10
24.067100
 20
182.416027
 30
0.0
 10
22.497992
 20
182.736517
 30
0.0
 10
21.300575
 20
183.899232
 30
0.0
 10
21.179762
 20
184.935506
 30
0.0
 10
21.116535
 20
185.477840
 30
0.0
 11
21.116535
 21
185.477840
 31
0.0
 11
21.488376
 21
187.030180
 31
0.0
 11
22.516462
 21
188.057821
 31
0.0
 11
24.069638
 21
188.429532
 31
0.0
 11
25.621612
 21
188.057821
 31
0.0
 11
26.648574
 21
187.030180
 31
0.0
 11
27.019918
 21
185.477840
 31
0.0
 11
26.648574
 21
183.925657
 31
0.0
 11
25.621612
 21
182.897937
 31
0.0
 11
24.069638
 21
182.526148
 31
0.0
 11
22.516462
 21
182.897937
 31
0.0
 11
21.488376
 21
183.925657
 31
0.0
 11
21.116535
 21
185.477840
 31
0.0
  0
LWPOLYLINE
  5
141
100
AcDbEntity
  8
text
 62
1
100
AcDbPolyline
 90
2
 70
0
 10
24.069638
 20
184.297093
 30
0.0
 10
24.069638
 20
186.658940
 30
0.0
  0
LWPOLYLINE
  5
142
100
AcDbEntity
  8
text
 62
1
100
AcDbPolyline
 90
2
 70
0
 10
22.888891
 20
177.185841
 30
0.0
 10
25.249327
 20
177.185841
 30
0.0
  0
SPLINE
  5
143
100
AcDbEntity
  8
text
 62
1
100
AcDbSpline
 70
0
 71
3
 72
19
 73
15
 74
13
 40
0.000000
 40
0.000000
 40
0.000000
 40
0.000000
 40
1.596253
 40
3.049872
 40
4.646908
 40
6.242775
 40
7.695600
 40
9.291737
 40
10.887723
 40
12.340603
 40
13.936488
 40
15.533542
 40
16.987217
 40
18.583317
 40
18.583317
 40
18.583317
 40
18.583317
 10
21.116535
 20
177.185841
 30
0.0
 10
21.179745
 20
177.728234
 30
0.0
 10
21.300516
 20
178.764555
 30
0.0
 10
22.498014
 20
179.927260
 30
0.0
 10
24.067100
 20
180.247604
 30
0.0
 10
25.648383
 20
179.927268
 30
0.0
 10
26.809794
 20
178.764166
 30
0.0
 10
27.129930
 20
177.185886
 30
0.0
 10
26.809737
 20
175.607625
 30
0.0
 10
25.648404
 20
174.444509
 30
0.0
 10
24.067100
 20
174.124028
 30
0.0
 10
22.497992
 20
174.444518
 30
0.0
 10
21.300575
 20
175.607232
 30
0.0
 10
21.179762
 20
176.643506
 30
0.0
 10
21.116535
 20
177.185841
 30
0.0
 11
21.116535
 21
177.185841
 31
0.0
 11
21.488376
 21
178.738180
 31
0.0
 11
22.516462
 21
179.765822
 31
0.0
 11
24.069638
 21
180.137532
 31
0.0
 11
25.621612
 21
179.765822
 31
0.0
 11
26.648574
 21
178.738180
 31
0.0
 11
27.019918
 21
177.185841
 31
0.0
 11
26.648574
 21
175.633658
 31
0.0
 11
25.621612
 21
174.605937
 31
0.0
 11
24.069638
 21
174.234149
 31
0.0
 11
22.516462
 21
174.605937
 31
0.0
 11
21.488376
 21
175.633658
 31
0.0
 11
21.116535
 21
177.185841
 31
0.0
  0
LWPOLYLINE
  5
144
100
AcDbEntity
  8
text
 62
1
100
AcDbPolyline
 90
2
 70
0
 10
24.069638
 20
176.005093
 30
0.0
 10
24.069638
 20
178.366941
 30
0.0
  0
LWPOLYLINE
  5
145
100
AcDbEntity
  8
text
 62
1
100
AcDbPolyline
 90
2
 70
0
 10
22.888891
 20
169.019413
 30
0.0
 10
25.249327
 20
169.019413
 30
0.0
  0
SPLINE
  5
146
100
AcDbEntity
  8
text
 62
1
100
AcDbSpline
 70
0
 71
3
 72
19
 73
15
 74
13
 40
0.000000
 40
0.000000
 40
0.000000
 40
0.000000
 40
1.596253
 40
3.049872
 40
4.646908
 40
6.242775
 40
7.695600
 40
9.291737
 40
10.887723
 40
12.340603
 40
13.936488
 40
15.533542
 40
16.987217
 40
18.583317
 40
18.583317
 40
18.583317
 40
18.583317
 10
21.116535
 20
169.019413
 30
0.0
 10
21.179745
 20
169.561807
 30
0.0
 10
21.300516
 20
170.598128
 30
0.0
 10
22.498014
 20
171.760832
 30
0.0
 10
24.067100
 20
172.081177
 30
0.0
 10
25.648383
 20
171.760840
 30
0.0
 10
26.809794
 20
170.597739
 30
0.0
 10
27.129930
 20
169.019458
 30
0.0
 10
26.809737
 20
167.441197
 30
0.0
 10
25.648404
 20
166.278082
 30
0.0
 10
24.067100
 20
165.957601
 30
0.0
 10
22.497992
 20
166.278091
 30
0.0
 10
21.300575
 20
167.440805
 30
0.0
 10
21.179762
 20
168.477079
 30
0.0
 10
21.116535
 20
169.019413
 30
0.0
 11
21.116535
 21
169.019413
 31
0.0
 11
21.488376
 21
170.571753
 31
0.0
 11
22.516462
 21
171.599395
 31
0.0
 11
24.069638
 21
171.971105
 31
0.0
 11
25.621612
 21
171.599395
 31
0.0
 11
26.648574
 21
170.571753
 31
0.0
 11
27.019918
 21
169.019413
 31
0.0
 11
26.648574
 21
167.467230
 31
0.0
 11
25.621612
 21
166.439510
 31
0.0
 11
24.069638
 21
166.067722
 31
0.0
 11
22.516462
 21
166.439510
 31
0.0
 11
21.488376
 21
167.467230
 31
0.0
 11
21.116535
 21
169.019413
 31
0.0
  0
LWPOLYLINE
  5
147
100
AcDbEntity
  8
text
 62
1
100
AcDbPolyline
 90
2
 70
0
 10
24.069638
 20
167.838666
 30
0.0
 10
24.069638
 20
170.200513
 30
0.0
  0
LWPOLYLINE
  5
148
100
AcDbEntity
  8
text
 62
1
100
AcDbPolyline
 90
2
 70
0
 10
9.136930
 20
239.387172
 30
0.0
 10
11.497366
 20
239.387172
 30
0.0
  0
SPLINE
  5
149
100
AcDbEntity
  8
text
 62
1
100
AcDbSpline
 70
0
 71
3
 72
19
 73
15
 74
13
 40
0.000000
 40
0.000000
 40
0.000000
 40
0.000000
 40
1.596253
 40
3.049872
 40
4.646908
 40
6.242775
 40
7.695600
 40
9.291737
 40
10.887723
 40
12.340603
 40
13.936488
 40
15.533542
 40
16.987217
 40
18.583317
 40
18.583317
 40
18.583317
 40
18.583317
 10
7.364575
 20
239.387172
 30
0.0
 10
7.427785
 20
239.929566
 30
0.0
 10
7.548556
 20
240.965887
 30
0.0
 10
8.746054
 20
242.128592
 30
0.0
 10
10.315139
 20
242.448936
 30
0.0
 10
11.896423
 20
242.128599
 30
0.0
 10
13.057834
 20
240.965498
 30
0.0
 10
13.377970
 20
239.387218
 30
0.0
 10
13.057777
 20
237.808957
 30
0.0
 10
11.896444
 20
236.645841
 30
0.0
 10
10.315139
 20
236.325360
 30
0.0
 10
8.746032
 20
236.645850
 30
0.0
 10
7.548614
 20
237.808564
 30
0.0
 10
7.427802
 20
238.844838
 30
0.0
 10
7.364575
 20
239.387172
 30
0.0
 11
7.364575
 21
239.387172
 31
0.0
 11
7.736416
 21
240.939512
 31
0.0
 11
8.764502
 21
241.967154
 31
0.0
 11
10.317678
 21
242.338864
 31
0.0
 11
11.869652
 21
241.967154
 31
0.0
 11
12.896614
 21
240.939512
 31
0.0
 11
13.267958
 21
239.387172
 31
0.0
 11
12.896614
 21
237.834989
 31
0.0
 11
11.869652
 21
236.807269
 31
0.0
 11
10.317678
 21
236.435481
 31
0.0
 11
8.764502
 21
236.807269
 31
0.0
 11
7.736416
 21
237.834989
 31
0.0
 11
7.364575
 21
239.387172
 31
0.0
  0
LWPOLYLINE
  5
14a
100
AcDbEntity
  8
text
 62
1
100
AcDbPolyline
 90
2
 70
0
 10
10.317678
 20
238.206425
 30
0.0
 10
10.317678
 20
240.568272
 30
0.0
  0
LWPOLYLINE
  5
14b
100
AcDbEntity
  8
text
 62
1
100
AcDbPolyline
 90
2
 70
0
 10
9.136930
 20
206.084950
 30
0.0
 10
11.497366
 20
206.084950
 30
0.0
  0
SPLINE
  5
14c
100
AcDbEntity
  8
text
 62
1
100
AcDbSpline
 70
0
 71
3
 72
19
 73
15
 74
13
 40
0.000000
 40
0.000000
 40
0.000000
 40
0.000000
 40
1.596253
 40
3.049872
 40
4.646908
 40
6.242775
 40
7.695600
 40
9.291737
 40
10.887723
 40
12.340603
 40
13.936488
 40
15.533542
 40
16.987217
 40
18.583317
 40
18.583317
 40
18.583317
 40
18.583317
 10
7.364575
 20
206.084950
 30
0.0
 10
7.427785
 20
206.627344
 30
0.0
 10
7.548556
 20
207.663665
 30
0.0
 10
8.746054
 20
208.826369
 30
0.0
 10
10.315139
 20
209.146714
 30
0.0
 10
11.896423
 20
208.826377
 30
0.0
 10
13.057834
 20
207.663276
 30
0.0
 10
13.377970
 20
206.084995
 30
0.0
 10
13.057777
 20
204.506734
 30
0.0
 10
11.896444
 20
203.343619
 30
0.0
 10
10.315139
 20
203.023138
 30
0.0
 10
8.746032
 20
203.343628
 30
0.0
 10
7.548614
 20
204.506342
 30
0.0
 10
7.427802
 20
205.542616
 30
0.0
 10
7.364575
 20
206.084950
 30
0.0
 11
7.364575
 21
206.084950
 31
0.0
 11
7.736416
 21
207.637290
 31
0.0
 11
8.764502
 21
208.664932
 31
0.0
 11
10.317678
 21
209.036642
 31
0.0
 11
11.869652
 21
208.664932
 31
0.0
 11
12.896614
 21
207.637290
 31
0.0
 11
13.267958
 21
206.084950
 31
0.0
 11
12.896614
 21
204.532767
 31
0.0
 11
11.869652
 21
203.505047
 31
0.0
 11
10.317678
 21
203.133259
 31
0.0
 11
8.764502
 21
203.505047
 31
0.0
 11
7.736416
 21
204.532767
 31
0.0
 11
7.364575
 21
206.084950
 31
0.0
  0
LWPOLYLINE
  5
14d
100
AcDbEntity
  8
text
 62
1
100
AcDbPolyline
 90
2
 70
0
 10
10.317678
 20
204.904203
 30
0.0
 10
10.317678
 20
207.266050
 30
0.0
  0
LWPOLYLINE
  5
14e
100
AcDbEntity
  8
text
 62
1
100
AcDbPolyline
 90
2
 70
0
 10
9.136930
 20
158.671617
 30
0.0
 10
11.497366
 20
158.671617
 30
0.0
  0
SPLINE
  5
14f
100
AcDbEntity
  8
text
 62
1
100
AcDbSpline
 70
0
 71
3
 72
19
 73
15
 74
13
 40
0.000000
 40
0.000000
 40
0.000000
 40
0.000000
 40
1.596253
 40
3.049872
 40
4.646908
 40
6.242775
 40
7.695600
 40
9.291737
 40
10.887723
 40
12.340603
 40
13.936488
 40
15.533542
 40
16.987217
 40
18.583317
 40
18.583317
 40
18.583317
 40
18.583317
 10
7.364575
 20
158.671617
 30
0.0
 10
7.427785
 20
159.214011
 30
0.0
 10
7.548556
 20
160.250332
 30
0.0
 10
8.746054
 20
161.413036
 30
0.0
 10
10.315139
 20
161.733381
 30
0.0
 10
11.896423
 20
161.413044
 30
0.0
 10
13.057834
 20
160.249942
 30
0.0
 10
13.377970
 20
158.671662
 30
0.0
 10
13.057777
 20
157.093401
 30
0.0
 10
11.896444
 20
155.930286
 30
0.0
 10
10.315139
 20
155.609804
 30
0.0
 10
8.746032
 20
155.930294
 30
0.0
 10
7.548614
 20
157.093009
 30
0.0
 10
7.427802
 20
158.129283
 30
0.0
 10
7.364575
 20
158.671617
 30
0.0
 11
7.364575
 21
158.671617
 31
0.0
 11
7.736416
 21
160.223957
 31
0.0
 11
8.764502
 21
161.251598
 31
0.0
 11
10.317678
 21
161.623309
 31
0.0
 11
11.869652
 21
161.251598
 31
0.0
 11
12.896614
 21
160.223957
 31
0.0
 11
13.267958
 21
158.671617
 31
0.0
 11
12.896614
 21
157.119434
 31
0.0
 11
11.869652
 21
156.091714
 31
0.0
 11
10.317678
 21
155.719925
 31
0.0
 11
8.764502
 21
156.091714
 31
0.0
 11
7.736416
 21
157.119434
 31
0.0
 11
7.364575
 21
158.671617
 31
0.0
  0
LWPOLYLINE
  5
150
100
AcDbEntity
  8
text
 62
1
100
AcDbPolyline
 90
2
 70
0
 10
10.317678
 20
157.490870
 30
0.0
 10
10.317678
 20
159.852717
 30
0.0
  0
LWPOLYLINE
  5
151
100
AcDbEntity
  8
text
 62
1
100
AcDbPolyline
 90
2
 70
0
 10
9.136930
 20
182.942728
 30
0.0
 10
11.497366
 20
182.942728
 30
0.0
  0
SPLINE
  5
152
100
AcDbEntity
  8
text
 62
1
100
AcDbSpline
 70
0
 71
3
 72
19
 73
15
 74
13
 40
0.000000
 40
0.000000
 40
0.000000
 40
0.000000
 40
1.596253
 40
3.049872
 40
4.646908
 40
6.242775
 40
7.695600
 40
9.291737
 40
10.887723
 40
12.340603
 40
13.936488
 40
15.533542
 40
16.987217
 40
18.583317
 40
18.583317
 40
18.583317
 40
18.583317
 10
7.364575
 20
182.942728
 30
0.0
 10
7.427785
 20
183.485122
 30
0.0
 10
7.548556
 20
184.521443
 30
0.0
 10
8.746054
 20
185.684147
 30
0.0
 10
10.315139
 20
186.004492
 30
0.0
 10
11.896423
 20
185.684155
 30
0.0
 10
13.057834
 20
184.521054
 30
0.0
 10
13.377970
 20
182.942773
 30
0.0
 10
13.057777
 20
181.364512
 30
0.0
 10
11.896444
 20
180.201397
 30
0.0
 10
10.315139
 20
179.880915
 30
0.0
 10
8.746032
 20
180.201405
 30
0.0
 10
7.548614
 20
181.364120
 30
0.0
 10
7.427802
 20
182.400394
 30
0.0
 10
7.364575
 20
182.942728
 30
0.0
 11
7.364575
 21
182.942728
 31
0.0
 11
7.736416
 21
184.495068
 31
0.0
 11
8.764502
 21
185.522709
 31
0.0
 11
10.317678
 21
185.894420
 31
0.0
 11
11.869652
 21
185.522709
 31
0.0
 11
12.896614
 21
184.495068
 31
0.0
 11
13.267958
 21
182.942728
 31
0.0
 11
12.896614
 21
181.390545
 31
0.0
 11
11.869652
 21
180.362825
 31
0.0
 11
10.317678
 21
179.991036
 31
0.0
 11
8.764502
 21
180.362825
 31
0.0
 11
7.736416
 21
181.390545
 31
0.0
 11
7.364575
 21
182.942728
 31
0.0
  0
LWPOLYLINE
  5
153
100
AcDbEntity
  8
text
 62
1
100
AcDbPolyline
 90
2
 70
0
 10
10.317678
 20
181.761981
 30
0.0
 10
10.317678
 20
184.123828
 30
0.0
  0
ENDSEC
  0
SECTION
  2
OBJECTS
  0
DICTIONARY
  5
C
330
0
100
AcDbDictionary
  3
ACAD_GROUP
350
D
  3
ACAD_MLINESTYLE
350
17
  0
DICTIONARY
  5
D
330
C
100
AcDbDictionary
  0
DICTIONARY
  5
1A
330
C
100
AcDbDictionary
  0
DICTIONARY
  5
17
330
C
100
AcDbDictionary
  3
STANDARD
350
18
  0
DICTIONARY
  5
19
330
C
100
AcDbDictionary
  0
ENDSEC
  0
EOF
